<?xml version="1.0" standalone="no"?>
<!DOCTYPE svg PUBLIC "-//W3C//DTD SVG 20010904//EN"
 "http://www.w3.org/TR/2001/REC-SVG-20010904/DTD/svg10.dtd">
<svg version="1.0" xmlns="http://www.w3.org/2000/svg"
 width="100.000000pt" height="158.000000pt" viewBox="0 0 100.000000 158.000000"
 preserveAspectRatio="xMidYMid meet">

<g transform="translate(0.000000,158.000000) scale(0.100000,-0.100000)"
fill="#000000" stroke="none">
<path d="M331 1557 c-6 -16 -11 -36 -11 -45 -1 -15 -2 -15 -15 1 -13 18 -14
18 -30 -6 -40 -61 -46 -160 -16 -258 28 -90 39 -166 47 -307 7 -120 8 -125 44
-181 56 -86 83 -104 149 -99 46 4 58 10 83 39 72 85 76 94 88 244 11 144 22
211 37 226 4 4 34 -15 66 -42 43 -38 57 -57 57 -78 0 -31 16 -51 42 -51 14 0
18 -8 18 -32 0 -25 3 -29 10 -18 13 20 13 76 0 101 -9 16 -6 24 17 44 23 20
26 27 17 42 -12 18 -31 20 -90 8 -21 -5 -34 -2 -43 9 -15 17 -36 22 -26 6 3
-5 1 -10 -5 -10 -7 0 -10 6 -7 14 3 8 -6 24 -19 37 -23 22 -25 29 -19 80 8 71
-12 125 -49 135 -14 3 -26 12 -26 20 0 22 -50 42 -133 53 -88 12 -148 39 -164
73 l-11 23 -11 -28z m49 -206 c0 -10 8 -25 17 -32 9 -8 14 -9 10 -2 -4 6 -4
18 -1 27 5 13 25 16 114 16 117 0 130 -6 144 -62 7 -32 1 -35 -28 -10 -13 11
-11 5 7 -19 15 -20 27 -41 27 -47 0 -10 -100 -22 -180 -22 -19 0 -68 2 -107 6
-81 6 -84 11 -63 83 18 64 60 107 60 62z m144 -225 c19 -49 58 -73 101 -62 30
8 30 6 4 -72 l-21 -63 -36 21 c-23 14 -46 20 -63 16 -14 -3 -31 0 -37 6 -7 7
-24 3 -56 -15 -25 -14 -48 -21 -51 -16 -6 8 -45 119 -45 125 0 2 13 1 29 -2
17 -4 41 1 60 11 29 15 40 30 55 78 11 33 42 20 60 -27z m394 -3 c-2 -10 -12
-18 -23 -18 -11 0 -21 8 -23 18 -3 13 3 17 23 17 20 0 26 -4 23 -17z m-67 -12
c13 -11 20 -23 16 -27 -4 -4 -20 4 -35 19 -30 31 -16 37 19 8z m34 -61 c4 -6
4 -18 1 -26 -4 -12 -10 -13 -26 -4 -11 6 -20 17 -20 25 0 17 36 20 45 5z
m-362 -134 c9 -7 17 -21 17 -30 0 -18 -21 -21 -37 -5 -8 8 -17 7 -32 -2 -17
-11 -23 -11 -33 -1 -11 11 -9 17 11 33 27 22 49 24 74 5z"/>
<path d="M39 674 c-22 -24 -30 -38 -21 -41 16 -6 18 -613 1 -613 -5 0 -7 -5
-4 -10 8 -12 112 -13 119 -1 3 5 -1 11 -9 15 -13 5 -15 52 -15 335 0 304 1
331 18 340 14 9 10 10 -19 11 -28 0 -42 -8 -70 -36z"/>
<path d="M873 699 c16 -9 17 -36 17 -339 0 -208 -4 -331 -10 -335 -25 -15 -5
-25 50 -25 33 0 60 4 60 10 0 6 -4 10 -10 10 -6 0 -10 108 -10 305 0 281 1
305 17 305 12 0 6 11 -22 40 -31 32 -46 40 -75 40 -28 -1 -32 -2 -17 -11z"/>
<path d="M350 590 c0 -38 3 -70 6 -70 3 0 33 16 65 35 33 19 64 35 69 35 5 0
35 -16 67 -35 32 -19 61 -35 66 -35 4 0 7 32 7 70 0 39 -2 70 -4 70 -2 0 -34
-14 -70 -31 l-66 -31 -66 31 c-36 17 -68 31 -70 31 -2 0 -4 -31 -4 -70z"/>
<path d="M285 260 l0 -180 25 0 25 0 -3 180 c-3 178 -3 180 -25 180 -22 0 -22
-1 -22 -180z"/>
<path d="M175 336 c-18 -13 -20 -25 -17 -122 2 -60 8 -114 14 -121 13 -16 60
-17 76 -1 7 7 12 25 12 40 0 21 -5 28 -20 28 -16 0 -20 -7 -20 -35 0 -45 -17
-46 -25 -1 -12 60 -4 81 33 84 l32 3 0 59 c0 48 -4 61 -19 70 -26 14 -44 13
-66 -4z m45 -62 c0 -40 -4 -55 -12 -52 -14 5 -23 70 -14 94 12 32 26 11 26
-42z"/>
<path d="M366 328 c-12 -17 -16 -48 -16 -119 0 -80 3 -99 18 -112 25 -23 69
-22 82 2 17 33 12 61 -10 61 -16 0 -20 -7 -20 -36 0 -24 -4 -34 -12 -31 -8 2
-13 23 -13 58 0 54 0 54 33 57 32 3 32 4 32 56 0 39 -5 57 -18 69 -26 23 -58
21 -76 -5z m54 -54 c0 -41 -4 -54 -15 -54 -11 0 -15 13 -15 53 0 30 3 57 6 60
15 15 24 -8 24 -59z"/>
<path d="M475 333 c8 -17 34 -197 35 -235 0 -11 8 -18 20 -18 11 0 20 1 20 3
0 22 30 237 35 250 5 12 2 17 -9 17 -11 0 -16 -9 -16 -32 0 -18 -3 -58 -7 -88
l-7 -55 -7 40 c-5 22 -8 61 -8 88 -1 46 -2 47 -32 47 -26 0 -30 -3 -24 -17z"/>
<path d="M620 330 c-17 -17 -20 -33 -20 -119 0 -111 9 -131 60 -131 31 0 50
23 50 59 0 14 -6 21 -20 21 -16 0 -20 -7 -20 -36 0 -24 -4 -34 -12 -32 -8 3
-13 24 -13 59 0 54 0 54 33 57 32 3 32 4 32 56 0 78 -45 111 -90 66z m50 -56
c0 -41 -4 -54 -15 -54 -11 0 -15 13 -15 53 0 30 3 57 6 60 15 15 24 -8 24 -59z"/>
<path d="M725 215 l0 -135 34 0 c27 0 31 2 22 14 -16 20 -11 228 7 234 9 3 12
-26 12 -122 0 -124 0 -126 23 -126 22 0 22 1 19 122 -2 67 -8 128 -14 135 -6
7 -31 13 -57 13 l-46 0 0 -135z"/>
</g>
</svg>
